<svg version="1.2" baseProfile="tiny-ps" xmlns="http://www.w3.org/2000/svg" viewBox="0 0 200 200" width="200" height="200">
	<title>logo-svg</title>
	<style>
		tspan { white-space:pre }
		.shp0 { fill: #ebdbb2 } 
	</style>
	<path id="Layer" class="shp0" d="M92.68 49.41C108.6 53.47 118.05 59.38 120.19 63.94C122.79 69.49 115.16 73.21 97.22 69.73C87.96 67.93 83.22 69.2 81.62 71.38C74.57 81.01 99.02 97.47 110.39 104.19C55.18 90.43 29.96 128.17 101.55 143.7C107.68 145.03 119.42 145.5 119.39 147.26C119.39 149.16 89.21 149.32 73.29 149.81C84.15 152.71 110.26 154.69 127.23 153.08C143.73 151.52 150.94 145.91 130.13 140.79C119.39 138.15 77.3 130.17 81.73 121.66C88.21 109.24 116.2 112.23 132.51 110.54C92.41 82.97 83.32 76.47 137.73 83.57C151.97 86.73 131.71 63.56 110.47 53.87C105.49 51.89 98.84 50.36 92.68 49.41Z" />
</svg>